<svg width="38" height="38" viewBox="0 0 38 38" fill="none" xmlns="http://www.w3.org/2000/svg">
<mask id="mask0_37_583" style="mask-type:luminance" maskUnits="userSpaceOnUse" x="0" y="0" width="38" height="38">
<path d="M37.5667 0H0V37.5667H37.5667V0Z" fill="white"/>
</mask>
<g mask="url(#mask0_37_583)">
<path d="M32.0329 7.75251L20.5357 2.25768C19.3162 1.66868 17.8784 1.74838 16.731 2.46939L4.86736 9.94017C3.72005 10.6612 3.02539 11.9251 3.03129 13.2794L3.075 25.9842C3.08101 27.4859 3.94227 28.8545 5.2946 29.5096L16.7917 35.0045C18.0112 35.5935 19.4491 35.5139 20.5964 34.7928L32.46 27.3219C33.6074 26.6009 34.302 25.3371 34.2961 23.9829L34.2739 17.1523L34.2549 11.278C34.249 9.77617 33.3876 8.40777 32.0378 7.75496L32.0329 7.75251Z" fill="#FAFAFA" stroke="#383E47" stroke-width="1.44118" stroke-miterlimit="10"/>
<g opacity="0.8">
<path d="M15.8111 30.5384L7.61339 26.6191C6.77528 26.213 6.22951 25.3465 6.2266 24.4128L6.19531 15.2394" fill="#FAFAFA"/>
<path d="M15.8111 30.5384L7.61339 26.6191C6.77528 26.213 6.22951 25.3465 6.2266 24.4128L6.19531 15.2394" stroke="#383E47" stroke-width="1.15294" stroke-miterlimit="10"/>
<path d="M9.34473 14.631L16.3958 18.0419C17.2295 18.4546 17.7709 19.3189 17.7737 20.2505L17.802 28.3291" fill="#FAFAFA"/>
<path d="M9.34473 14.631L16.3958 18.0419C17.2295 18.4546 17.7709 19.3189 17.7737 20.2505L17.802 28.3291" stroke="#383E47" stroke-width="1.15294" stroke-miterlimit="10"/>
<path d="M6.21372 19.0303L6.19922 14.4727C6.19892 14.0638 6.4825 13.8401 6.60531 13.7619C6.72813 13.6858 7.0542 13.5248 7.42296 13.7032L9.75848 14.832" fill="#FAFAFA"/>
<path d="M6.21372 19.0303L6.19922 14.4727C6.19892 14.0638 6.4825 13.8401 6.60531 13.7619C6.72813 13.6858 7.0542 13.5248 7.42296 13.7032L9.75848 14.832" stroke="#383E47" stroke-width="1.15294" stroke-miterlimit="10"/>
<path d="M17.7899 25.217L17.8069 30.2102C17.8072 30.6168 17.5415 30.8292 17.4277 30.9008C17.3137 30.9724 17.0077 31.1223 16.6412 30.9439L11.4785 28.4811" fill="#FAFAFA"/>
<path d="M17.7899 25.217L17.8069 30.2102C17.8072 30.6168 17.5415 30.8292 17.4277 30.9008C17.3137 30.9724 17.0077 31.1223 16.6412 30.9439L11.4785 28.4811" stroke="#383E47" stroke-width="1.15294" stroke-miterlimit="10"/>
</g>
</g>
</svg>
