<svg width="151" height="40" viewBox="0 0 151 40" fill="none" xmlns="http://www.w3.org/2000/svg">
<g clip-path="url(#clip0_37_206)">
<mask id="mask0_37_206" style="mask-type:luminance" maskUnits="userSpaceOnUse" x="0" y="0" width="151" height="40">
<path d="M150.848 0H0.847656V40H150.848V0Z" fill="white"/>
</mask>
<g mask="url(#mask0_37_206)">
<path d="M13.0193 19.6769C17.3544 19.6769 20.8687 16.16 20.8687 11.8219C20.8687 7.48363 17.3544 3.9668 13.0193 3.9668C8.6842 3.9668 5.16992 7.48363 5.16992 11.8219C5.16992 16.16 8.6842 19.6769 13.0193 19.6769Z" fill="#383E47"/>
<path d="M27.1253 14.6684C29.3033 14.6684 31.069 12.9015 31.069 10.7219C31.069 8.54231 29.3033 6.77539 27.1253 6.77539C24.9473 6.77539 23.1816 8.54231 23.1816 10.7219C23.1816 12.9015 24.9473 14.6684 27.1253 14.6684Z" fill="#383E47"/>
<path d="M4.7913 26.3169C6.9693 26.3169 8.73494 24.55 8.73494 22.3703C8.73494 20.1907 6.9693 18.4238 4.7913 18.4238C2.61329 18.4238 0.847656 20.1907 0.847656 22.3703C0.847656 24.55 2.61329 26.3169 4.7913 26.3169Z" fill="#383E47"/>
<path d="M26.1399 33.1863C30.6635 33.1863 34.3305 29.5165 34.3305 24.9896C34.3305 20.4628 30.6635 16.793 26.1399 16.793C21.6163 16.793 17.9492 20.4628 17.9492 24.9896C17.9492 29.5165 21.6163 33.1863 26.1399 33.1863Z" fill="#383E47"/>
<path d="M12.1484 36.0323C14.8708 36.0323 17.0779 33.8236 17.0779 31.0991C17.0779 28.3746 14.8708 26.166 12.1484 26.166C9.42579 26.166 7.21875 28.3746 7.21875 31.0991C7.21875 33.8236 9.42579 36.0323 12.1484 36.0323Z" fill="#383E47"/>
<path d="M54.729 19.6009C55.7803 19.825 56.6248 20.3506 57.2624 21.1778C57.9001 21.9878 58.2189 22.9185 58.2189 23.9698C58.2189 25.4865 57.6846 26.6928 56.6161 27.589C55.5648 28.4679 54.0913 28.9074 52.1955 28.9074H43.7422V10.7598H51.9112C53.7553 10.7598 55.1943 11.1821 56.2283 12.0265C57.2796 12.871 57.8053 14.0171 57.8053 15.4647C57.8053 16.5332 57.5209 17.4208 56.9522 18.1274C56.4007 18.834 55.6596 19.3252 54.729 19.6009ZM48.1628 18.1016H51.0581C51.7819 18.1016 52.3334 17.9464 52.7126 17.6363C53.109 17.3088 53.3071 16.8348 53.3071 16.2145C53.3071 15.594 53.109 15.12 52.7126 14.7926C52.3334 14.4652 51.7819 14.3015 51.0581 14.3015H48.1628V18.1016ZM51.42 25.3399C52.1611 25.3399 52.7298 25.1762 53.1261 24.8487C53.5398 24.5041 53.7466 24.0129 53.7466 23.3752C53.7466 22.7376 53.5312 22.2378 53.1003 21.8759C52.6867 21.5139 52.1094 21.333 51.3683 21.333H48.1628V25.3399H51.42ZM73.605 21.4622C73.605 21.8759 73.5792 22.3067 73.5275 22.7548H63.523C63.592 23.651 63.8764 24.3404 64.3761 24.8229C64.8931 25.2882 65.5222 25.5209 66.2633 25.5209C67.3663 25.5209 68.1332 25.0555 68.564 24.1249H73.269C73.0277 25.0728 72.5882 25.9259 71.9506 26.6842C71.3301 27.4425 70.546 28.0371 69.5981 28.4679C68.6502 28.8988 67.5903 29.1142 66.4184 29.1142C65.0052 29.1142 63.747 28.8126 62.6441 28.2094C61.5411 27.6063 60.6794 26.7445 60.059 25.6242C59.4385 24.5041 59.1284 23.1943 59.1284 21.6949C59.1284 20.1956 59.43 18.8858 60.0331 17.7655C60.6535 16.6453 61.5153 15.7836 62.6182 15.1804C63.7212 14.5772 64.988 14.2756 66.4184 14.2756C67.8144 14.2756 69.0552 14.5686 70.141 15.1545C71.2267 15.7405 72.0712 16.5763 72.6743 17.6621C73.2948 18.7479 73.605 20.0146 73.605 21.4622ZM69.081 20.299C69.081 19.5406 68.8226 18.9374 68.3055 18.4893C67.7884 18.0413 67.1422 17.8172 66.3667 17.8172C65.6256 17.8172 64.9965 18.0327 64.4796 18.4635C63.9798 18.8943 63.6695 19.5062 63.5489 20.299H69.081ZM74.2826 21.6691C74.2826 20.1869 74.5584 18.8858 75.1098 17.7655C75.6786 16.6453 76.4455 15.7836 77.4106 15.1804C78.3758 14.5772 79.4529 14.2756 80.642 14.2756C81.6588 14.2756 82.5464 14.4824 83.3047 14.896C84.0802 15.3097 84.6748 15.8526 85.0884 16.5247V14.4824H89.509V28.9074H85.0884V26.8652C84.6576 27.5373 84.0544 28.0802 83.2788 28.4938C82.5205 28.9074 81.633 29.1142 80.6162 29.1142C79.4443 29.1142 78.3758 28.8126 77.4106 28.2094C76.4455 27.589 75.6786 26.7187 75.1098 25.5984C74.5584 24.461 74.2826 23.1512 74.2826 21.6691ZM85.0884 21.6949C85.0884 20.5919 84.7782 19.7216 84.1578 19.084C83.5546 18.4463 82.8135 18.1274 81.9346 18.1274C81.0556 18.1274 80.3059 18.4463 79.6855 19.084C79.0824 19.7043 78.7808 20.5661 78.7808 21.6691C78.7808 22.772 79.0824 23.651 79.6855 24.3059C80.3059 24.9436 81.0556 25.2624 81.9346 25.2624C82.8135 25.2624 83.5546 24.9436 84.1578 24.3059C84.7782 23.6683 85.0884 22.7979 85.0884 21.6949ZM91.0522 21.6949C91.0522 20.1956 91.3542 18.8858 91.9572 17.7655C92.578 16.6453 93.4313 15.7836 94.5171 15.1804C95.6198 14.5772 96.8775 14.2756 98.291 14.2756C100.101 14.2756 101.609 14.7495 102.815 15.6974C104.039 16.6453 104.839 17.9809 105.219 19.7043H100.514C100.118 18.6014 99.351 18.0498 98.2135 18.0498C97.403 18.0498 96.7572 18.3687 96.2745 19.0064C95.7917 19.6268 95.5503 20.523 95.5503 21.6949C95.5503 22.8668 95.7917 23.7716 96.2745 24.4093C96.7572 25.0297 97.403 25.3399 98.2135 25.3399C99.351 25.3399 100.118 24.7884 100.514 23.6854H105.219C104.839 25.3744 104.039 26.7014 102.815 27.6666C101.591 28.6316 100.083 29.1142 98.291 29.1142C96.8775 29.1142 95.6198 28.8126 94.5171 28.2094C93.4313 27.6063 92.578 26.7445 91.9572 25.6242C91.3542 24.5041 91.0522 23.1943 91.0522 21.6949ZM113.374 29.1142C111.961 29.1142 110.686 28.8126 109.549 28.2094C108.428 27.6063 107.541 26.7445 106.885 25.6242C106.248 24.5041 105.929 23.1943 105.929 21.6949C105.929 20.2128 106.257 18.9116 106.911 17.7914C107.567 16.6539 108.463 15.7836 109.6 15.1804C110.738 14.5772 112.013 14.2756 113.426 14.2756C114.839 14.2756 116.115 14.5772 117.252 15.1804C118.39 15.7836 119.286 16.6539 119.941 17.7914C120.595 18.9116 120.923 20.2128 120.923 21.6949C120.923 23.177 120.587 24.4868 119.915 25.6242C119.26 26.7445 118.355 27.6063 117.201 28.2094C116.063 28.8126 114.788 29.1142 113.374 29.1142ZM113.374 25.2882C114.219 25.2882 114.934 24.978 115.52 24.3576C116.123 23.7371 116.425 22.8496 116.425 21.6949C116.425 20.5402 116.132 19.6527 115.546 19.0322C114.978 18.4118 114.27 18.1016 113.426 18.1016C112.565 18.1016 111.849 18.4118 111.28 19.0322C110.712 19.6354 110.427 20.523 110.427 21.6949C110.427 22.8496 110.703 23.7371 111.254 24.3576C111.824 24.978 112.53 25.2882 113.374 25.2882ZM131.282 14.3273C132.971 14.3273 134.315 14.8787 135.315 15.9818C136.331 17.0675 136.84 18.5669 136.84 20.4799V28.9074H132.445V21.0745C132.445 20.1093 132.196 19.3596 131.695 18.8254C131.196 18.2911 130.524 18.024 129.68 18.024C128.835 18.024 128.163 18.2911 127.663 18.8254C127.163 19.3596 126.913 20.1093 126.913 21.0745V28.9074H122.492V14.4824H126.913V16.3954C127.361 15.7577 127.964 15.2579 128.723 14.896C129.481 14.5169 130.334 14.3273 131.282 14.3273ZM145.004 29.1142C143.747 29.1142 142.626 28.8988 141.644 28.4679C140.661 28.0371 139.886 27.4511 139.317 26.71C138.749 25.9518 138.43 25.1073 138.36 24.1766H142.729C142.781 24.6764 143.014 25.0814 143.428 25.3916C143.841 25.7018 144.35 25.857 144.953 25.857C145.505 25.857 145.927 25.7536 146.219 25.5468C146.53 25.3227 146.685 25.0383 146.685 24.6936C146.685 24.28 146.469 23.9784 146.038 23.7889C145.608 23.582 144.91 23.358 143.944 23.1167C142.911 22.8754 142.049 22.6255 141.359 22.367C140.67 22.0913 140.076 21.6691 139.576 21.1003C139.076 20.5143 138.826 19.7302 138.826 18.7479C138.826 17.9206 139.05 17.1709 139.498 16.4988C139.964 15.8094 140.635 15.2666 141.514 14.8702C142.41 14.4737 143.47 14.2756 144.694 14.2756C146.504 14.2756 147.926 14.7237 148.96 15.6198C150.011 16.516 150.614 17.7052 150.77 19.1874H146.685C146.616 18.6875 146.392 18.2911 146.012 17.9982C145.651 17.7052 145.168 17.5587 144.565 17.5587C144.048 17.5587 143.652 17.6621 143.376 17.8689C143.1 18.0585 142.963 18.3256 142.963 18.6703C142.963 19.084 143.177 19.3941 143.608 19.6009C144.056 19.8077 144.746 20.0146 145.677 20.2214C146.746 20.4972 147.616 20.7728 148.287 21.0486C148.96 21.3072 149.546 21.738 150.046 22.3412C150.562 22.9272 150.829 23.7199 150.847 24.7195C150.847 25.5639 150.606 26.3223 150.123 26.9944C149.658 27.6493 148.977 28.1663 148.081 28.5455C147.202 28.9246 146.176 29.1142 145.004 29.1142Z" fill="#383E47"/>
</g>
</g>
<defs>
<clipPath id="clip0_37_206">
<rect width="151" height="40" fill="white"/>
</clipPath>
</defs>
</svg>
