<svg width="160" height="40" viewBox="0 0 160 40" fill="none" xmlns="http://www.w3.org/2000/svg">
<g clip-path="url(#clip0_37_201)">
<path fill-rule="evenodd" clip-rule="evenodd" d="M39.2547 13.2502C42.5095 13.2502 44.5385 14.6662 44.5385 16.9488C44.5385 18.5339 43.5663 19.7809 41.9812 20.2036C43.9045 20.5629 45.0669 22.0001 45.0669 23.9445C45.0669 26.4807 42.9111 28.0447 39.4872 28.0447H32.4492V13.2502H39.2547ZM39.0856 19.2103C40.3538 19.2103 41.1146 18.5973 41.1146 17.5617C41.1146 16.5472 40.3538 15.9554 39.0856 15.9766H35.7886V19.2103H39.0856ZM39.0856 25.3183C40.6496 25.3183 41.6219 24.6631 41.6219 23.5218C41.6219 22.4439 40.6496 21.7887 39.0856 21.8099H35.7886V25.3183H39.0856ZM63.8914 28.0447H60.1082L57.7622 23.8177H54.3594V28.0447H51.0201V13.2502H57.4452C61.3129 13.2502 63.511 15.11 63.511 18.386C63.511 20.6686 62.5387 22.3171 60.7422 23.1625L63.8914 28.0447ZM54.3593 16.0189V21.0279H57.4452C59.2839 21.0279 60.3407 20.1825 60.3407 18.4917C60.3407 16.8431 59.2839 16.0189 57.4452 16.0189H54.3593ZM80.7712 28.0447L79.6087 25.1704H72.7609L71.5985 28.0447H68.1535L74.5786 13.2502H78.0236L84.343 28.0447H80.7712ZM73.8601 22.4862H78.531L76.2061 16.7375L73.8601 22.4862ZM86.661 13.2502L92.4731 28.0447H95.9181L101.794 13.2502H98.3487L94.2907 24.4095L90.2539 13.2502H86.661ZM116.75 28.0447L115.588 25.1704H108.74L107.578 28.0447H104.133L110.558 13.2502H114.003L120.322 28.0447H116.75ZM109.839 22.4862H114.51L112.185 16.7375L109.839 22.4862ZM131.665 13.2502C136.252 13.2502 139.443 16.2725 139.443 20.6474C139.443 25.0013 136.209 28.0447 131.538 28.0447H125.388V13.2502H131.665ZM131.749 25.2338C134.222 25.2338 136.04 23.3739 136.04 20.6686C136.04 17.9422 134.137 16.0611 131.601 16.0611H128.727V25.2338H131.749ZM152.054 13.1445C156.577 13.1445 160 16.357 160 20.6475C160 24.9167 156.577 28.1927 152.054 28.1927C147.531 28.1927 144.107 24.9379 144.107 20.6475C144.107 16.3359 147.531 13.1445 152.054 13.1445ZM152.096 16.0611C149.602 16.0611 147.531 18.0478 147.531 20.6475C147.531 23.2471 149.623 25.276 152.096 25.276C154.569 25.276 156.577 23.2471 156.577 20.6475C156.577 18.0478 154.569 16.0611 152.096 16.0611Z" fill="#383E47"/>
<path d="M18.7864 11.6055V14.7757C18.7864 15.128 18.7863 15.3628 18.669 15.7151C18.3167 17.0066 17.0252 17.946 15.7336 17.946H3.17021C1.76123 17.946 0.587078 17.0066 0.23484 15.7151C1.3411e-07 15.3628 0 15.0106 0 14.7757V11.6055H3.17021V13.4842C3.17021 14.1887 3.75728 14.7757 4.46177 14.7757H14.4421C15.1465 14.7757 15.7336 14.1887 15.7336 13.4842V11.6055H18.7864Z" fill="#383E47"/>
<path d="M13.6201 21.0002L10.2151 27.2233H9.3932H8.57129L5.16626 21.0002H0L1.76123 24.1705H3.28762L6.69266 30.3934H9.3932H12.0937L15.4987 24.1705H17.0252L18.7864 21.0002H13.6201Z" fill="#383E47"/>
</g>
<defs>
<clipPath id="clip0_37_201">
<rect width="160" height="40" fill="white"/>
</clipPath>
</defs>
</svg>
