<svg width="146" height="40" viewBox="0 0 146 40" fill="none" xmlns="http://www.w3.org/2000/svg">
<g clip-path="url(#clip0_37_118)">
<mask id="mask0_37_118" style="mask-type:luminance" maskUnits="userSpaceOnUse" x="0" y="0" width="146" height="40">
<path d="M145.673 0.941406H0.539062V39.0573H145.673V0.941406Z" fill="white"/>
</mask>
<g mask="url(#mask0_37_118)">
<path d="M56.3614 25.2931C53.7943 25.2931 51.9403 23.2313 51.9403 20.4333C51.9403 17.6352 53.7943 15.5735 56.3614 15.5735C58.5007 15.5735 60.155 16.9872 60.64 19.1078H63.6919C63.1214 15.3673 60.2121 12.7754 56.3614 12.7754C52.0829 12.7754 48.9453 16.0153 48.9453 20.4333C48.9453 24.8513 52.0829 28.091 56.3614 28.091C60.2121 28.091 63.1214 25.4992 63.6919 21.7586H60.64C60.155 23.8498 58.5007 25.2931 56.3614 25.2931Z" fill="#383E47"/>
<path d="M67.7148 27.7951L68.8843 24.8497H76.4145L77.5839 27.7951H80.6645L74.8171 13.0684H70.5387L64.6914 27.7951H67.7148ZM69.9397 22.199L72.5068 15.7193H72.792L75.3591 22.199H69.9397Z" fill="#383E47"/>
<path d="M89.3575 25.2915C87.0472 25.2915 85.3642 23.3771 85.3642 20.7263V13.0684H82.5117V20.7263C82.5117 24.9675 85.4214 28.0895 89.3575 28.0895C93.2938 28.0895 96.2032 24.9675 96.2032 20.7263V13.0684H93.3508V20.7263C93.3508 23.3771 91.6679 25.2915 89.3575 25.2915Z" fill="#383E47"/>
<path d="M106.328 25.4403C103.932 25.4403 102.335 24.6155 102.335 23.3786H99.4824C99.4824 26.206 102.221 28.091 106.328 28.091C110.778 28.091 113.174 26.4122 113.174 23.2902C113.174 20.2859 111.177 18.9606 106.471 18.9606C103.761 18.9606 102.62 18.5188 102.62 17.3996C102.62 16.1037 103.904 15.4261 106.328 15.4261C108.553 15.4261 110.036 16.2509 110.036 17.4879H112.888C112.888 14.6604 110.264 12.7754 106.328 12.7754C102.05 12.7754 99.7677 14.3954 99.7677 17.3996C99.7677 20.3743 101.707 21.6114 106.214 21.6114C109.066 21.6114 110.321 22.112 110.321 23.2902C110.321 24.6745 108.924 25.4403 106.328 25.4403Z" fill="#383E47"/>
<path d="M118.054 27.7951L119.225 24.8497H126.754L127.923 27.7951H131.005L125.156 13.0684H120.879L115.031 27.7951H118.054ZM120.28 22.199L122.847 15.7193H123.132L125.699 22.199H120.28Z" fill="#383E47"/>
<path d="M133.717 27.7951H145.127V25.1443H136.57V13.0684H133.717V27.7951Z" fill="#383E47"/>
<path opacity="0.8" fill-rule="evenodd" clip-rule="evenodd" d="M18.9954 39.0574C29.1886 39.0574 37.4517 30.5249 37.4517 19.9994C37.4517 9.47394 29.1886 0.941406 18.9954 0.941406C8.80223 0.941406 0.539062 9.47394 0.539062 19.9994C0.539062 30.5249 8.80223 39.0574 18.9954 39.0574ZM18.9954 31.9329C25.3779 31.9329 30.5521 26.5901 30.5521 19.9994C30.5521 13.4087 25.3779 8.06589 18.9954 8.06589C12.6128 8.06589 7.43861 13.4087 7.43861 19.9994C7.43861 26.5901 12.6128 31.9329 18.9954 31.9329Z" fill="#99A2AF"/>
</g>
</g>
<defs>
<clipPath id="clip0_37_118">
<rect width="146" height="40" fill="white"/>
</clipPath>
</defs>
</svg>
