<svg width="81" height="40" viewBox="0 0 81 40" fill="none" xmlns="http://www.w3.org/2000/svg">
<g clip-path="url(#clip0_37_131)">
<mask id="mask0_37_131" style="mask-type:luminance" maskUnits="userSpaceOnUse" x="0" y="0" width="81" height="40">
<path d="M80.6152 0H0.615234V40H80.6152V0Z" fill="white"/>
</mask>
<g mask="url(#mask0_37_131)">
<path d="M39.1299 29.2844L39.1103 29.3259C37.9735 31.5208 36.1702 32.5878 33.5945 32.5878C30.2584 32.5878 27.8365 30.2215 27.8365 26.9661C27.8365 23.8111 30.1853 21.5769 33.8181 21.2703L38.9292 20.8351L38.9968 20.8296V19.5619C38.9968 17.7084 37.9691 16.7277 36.024 16.7277C34.0843 16.7277 32.8679 17.7281 32.8319 19.3416H28.455C28.6285 15.6498 31.5893 13.3599 36.204 13.3599C40.7161 13.3599 43.3039 15.6455 43.3039 19.6339V28.7826H46.4207V32.1525H39.4321L39.3961 29.3597V29.2844H39.1299ZM38.9968 24.9348V24.1264L34.8469 24.4853C34.7509 24.4973 32.5122 24.757 31.9875 25.7399C31.7508 26.1818 31.7082 26.7392 31.8708 27.2705C32.0028 27.7069 32.3344 28.3222 33.1526 28.7542C33.541 28.9964 34.0548 29.1448 34.6778 29.1971L34.7443 29.2059C34.777 29.2113 34.812 29.2157 34.848 29.2189L34.896 29.2135C34.993 29.2168 35.0891 29.2189 35.1905 29.2189C37.4324 29.2189 38.9968 27.4571 38.9968 24.9348ZM11.5814 7.53544C11.6479 7.54308 11.7134 7.5529 11.768 7.56381C13.6629 7.81363 15.4019 8.74421 16.6587 10.1798C19.3958 13.3087 19.242 18.0139 16.3063 20.9583C14.8313 22.4355 12.8273 23.2668 10.737 23.2668C10.6617 23.2668 10.5897 23.2624 10.5166 23.2569C10.4752 23.2548 10.4337 23.2515 10.3923 23.2504H5.20265V32.1558H0.615234V7.48853H10.7556L10.7741 7.49071C11.0359 7.49071 11.2988 7.50381 11.5618 7.53108L11.5814 7.53544ZM12.944 11.5359H5.20265V19.2903H12.944V11.5326V11.5359Z" fill="#383E47"/>
<path d="M20.7871 32.1817H25.1967V7.41406H20.7871V32.1817ZM48.6171 11.8738H52.9961V7.48824H48.6171V11.8738ZM71.9545 32.1511V20.1071C71.9545 15.6921 69.8883 13.3597 65.9773 13.3597C63.5292 13.3597 61.7608 14.3688 60.5706 16.4427L60.4287 16.6881V13.7939H56.0519V32.1511H60.4309V21.521C60.4309 18.7205 62.0259 16.9096 64.4925 16.9096C66.5664 16.9096 67.5755 18.0605 67.5755 20.4322V32.1522L71.9545 32.1511ZM74.9372 32.1511H80.6145V26.4662H74.9372V32.1511ZM52.9852 32.1817H48.5756V13.8408H52.9852V32.1817Z" fill="#383E47"/>
</g>
</g>
<defs>
<clipPath id="clip0_37_131">
<rect width="81" height="40" fill="white"/>
</clipPath>
</defs>
</svg>
