<svg width="125" height="40" viewBox="0 0 125 40" fill="none" xmlns="http://www.w3.org/2000/svg">
<g clip-path="url(#clip0_37_102)">
<mask id="mask0_37_102" style="mask-type:luminance" maskUnits="userSpaceOnUse" x="0" y="2" width="125" height="33">
<path d="M124.465 2H0.384766V34.3307H124.465V2Z" fill="white"/>
</mask>
<g mask="url(#mask0_37_102)">
<path d="M31.7225 14.253C31.7211 17.4701 30.512 20.5592 28.3533 22.8607C26.1947 25.1622 23.2576 26.4938 20.1691 26.571V13.4941H8.12695C8.33184 10.3113 9.71445 7.33534 11.9838 5.19265C14.2531 3.04994 17.2322 1.90753 20.2939 2.00586C23.3558 2.10419 26.2615 3.43558 28.3997 5.71983C30.538 8.00407 31.7063 11.0631 31.7225 14.253Z" fill="#99A2AF"/>
<path d="M20.167 13.4941V26.5711H19.9626C18.4096 26.5711 16.8719 26.2524 15.4372 25.6333C14.0026 25.0141 12.6992 24.1066 11.6015 22.9627C10.5038 21.8187 9.6333 20.4607 9.03978 18.9662C8.44632 17.4718 8.14144 15.8702 8.14258 14.253C8.14258 14.0032 8.14258 13.744 8.14258 13.4941H20.167Z" fill="#FAFAFB"/>
<path d="M20.1677 26.5711V34.0305H0.384766V13.4941H8.12555C8.12555 13.744 8.12555 14.0032 8.12555 14.253C8.12436 15.8702 8.42924 17.4718 9.0227 18.9662C9.61622 20.4607 10.4867 21.8187 11.5844 22.9627C12.6821 24.1066 13.9855 25.0141 15.4202 25.6333C16.8548 26.2524 18.3926 26.5711 19.9455 26.5711H20.1677Z" fill="#383E47"/>
<path d="M45.8789 10.2109H55.8265C60.9283 10.2109 64.1166 12.5219 64.1166 17.3562C64.1166 22.1905 60.9283 24.7405 55.6228 24.7405H50.2216V32.4037H45.8789V10.2109ZM55.3933 20.8358C58.1928 20.8358 59.7423 19.9526 59.7423 17.5156C59.7423 14.9988 58.1608 14.1156 55.5396 14.1156H50.2534V20.8026L55.3933 20.8358Z" fill="#383E47"/>
<path d="M63.8457 28.4197C63.8457 26.0822 65.3378 24.6811 68.0225 23.924L74.8904 21.985L75.0687 21.9319C75.0687 21.9319 75.0687 21.7924 75.0687 21.7327C75.0687 19.8467 73.9851 18.9967 72.0593 18.9967C70.1335 18.9967 68.5835 20.0592 67.6844 22.6756L64.1518 21.3076C65.5482 17.3897 68.5008 15.8691 72.2377 15.8691C76.9056 15.8691 79.3862 18.326 79.3862 21.6397V27.324C79.3862 28.5127 79.7621 29.1502 80.7252 29.1502C81.235 29.1382 81.7355 29.0017 82.1858 28.7517V32.072C81.1921 32.4844 80.1364 32.7093 79.0672 32.736C76.8736 32.736 75.1835 31.4943 75.1835 29.0904V28.7583H75.0687C74.5362 29.9866 73.6677 31.0245 72.5727 31.7424C71.4771 32.4604 70.2027 32.8267 68.9092 32.7958C65.542 32.7427 63.8457 30.5181 63.8457 28.4197ZM70.1841 29.3295C71.335 29.2839 72.446 28.879 73.373 28.1674C73.9117 27.7622 74.3501 27.2293 74.6515 26.6126C74.9535 25.996 75.1096 25.3133 75.107 24.6213C75.107 24.5815 75.107 24.349 75.107 24.349L74.8521 24.4354L70.0187 26.1685C68.9092 26.567 68.1503 26.8724 68.1503 27.749C68.1373 28.5127 68.7494 29.3295 70.1841 29.3295Z" fill="#383E47"/>
<path d="M83.9126 10.2109H88.2807V32.4037H83.9062L83.9126 10.2109Z" fill="#383E47"/>
<path d="M90.75 10.2109H95.1311V32.4037H90.75V10.2109Z" fill="#383E47"/>
<path d="M104.86 32.7431C99.7266 32.7431 96.5703 29.4229 96.5703 24.5089C96.5703 19.3757 99.8734 15.8164 104.981 15.8164C109.943 15.8164 113.239 19.0105 113.239 25.06H100.887C101.091 27.5635 102.258 29.3698 105.122 29.3698C107.252 29.3698 109.056 28.3671 109.643 26.1225L113.201 27.278C111.875 31.1229 108.623 32.7431 104.86 32.7431ZM108.744 22.3507C108.291 20.1328 106.933 19.0968 104.981 19.0968C104.052 19.025 103.131 19.3198 102.401 19.9226C101.671 20.5255 101.185 21.3922 101.04 22.3507H108.744Z" fill="#383E47"/>
<path d="M121.688 29.3619C119.909 29.3619 119.322 28.7842 119.322 26.7456V19.4609H123.99V16.207H112.512V19.4609H114.992V28.5186C114.992 31.1748 116.268 32.7088 120.017 32.7088C121.41 32.7246 122.8 32.5821 124.162 32.2838V29.0963C123.346 29.2565 122.518 29.3454 121.688 29.3619Z" fill="#383E47"/>
<path d="M114.941 10.2109C115.119 11.3595 115.64 12.4205 116.43 13.2431C117.22 14.0657 118.238 14.608 119.342 14.7929V10.2109H114.941Z" fill="#383E47"/>
</g>
</g>
<defs>
<clipPath id="clip0_37_102">
<rect width="125" height="40" fill="white"/>
</clipPath>
</defs>
</svg>
