<svg width="157" height="40" viewBox="0 0 157 40" fill="none" xmlns="http://www.w3.org/2000/svg">
<g clip-path="url(#clip0_37_139)">
<mask id="mask0_37_139" style="mask-type:luminance" maskUnits="userSpaceOnUse" x="0" y="0" width="157" height="40">
<path d="M156.695 0H0.695312V40H156.695V0Z" fill="white"/>
</mask>
<g mask="url(#mask0_37_139)">
<path d="M57.0873 25.1897C57.0873 28.7086 53.4128 29.4573 50.5661 29.4573C48.0865 29.4573 45.5121 28.3439 44.5944 27.9051C44.3792 27.803 44.2443 27.5867 44.2443 27.3484V23.5889C44.2443 23.2874 44.5859 23.1112 44.8302 23.2874C47.6854 25.3635 52.0199 25.8473 52.0199 24.678C52.0199 23.4199 44.1033 23.7311 44.1033 18.1957C44.1033 15.1691 46.7896 13.5865 50.3826 13.5865C55.3273 13.5865 56.6072 16.906 56.7178 19.4951C56.7263 19.7041 56.5574 19.8779 56.3471 19.8779H51.7962C51.592 19.8779 51.4255 19.7126 51.4255 19.5072V19.3699C51.4255 18.44 51.1107 17.9392 50.3935 17.9392C49.7347 17.9392 49.3616 18.4947 49.3616 18.9712C49.3616 21.8179 57.0885 20.2073 57.0885 25.1885L57.0873 25.1897ZM35.5036 18.9724C35.5036 18.4959 35.878 17.9404 36.5356 17.9404C37.2527 17.9404 37.5676 18.4412 37.5676 19.3711V19.5084C37.5676 19.7126 37.7329 19.8792 37.9383 19.8792H42.4891C42.6982 19.8792 42.8684 19.7053 42.8599 19.4963C42.7493 16.9085 41.4693 13.5877 36.5247 13.5877C32.9316 13.5877 30.2454 15.1703 30.2454 18.1969C30.2454 23.7323 38.1619 23.4211 38.1619 24.6792C38.1619 25.8485 33.8287 25.3647 30.9722 23.2886C30.7291 23.1112 30.3864 23.2886 30.3864 23.5901V27.3496C30.3864 27.5879 30.5225 27.8042 30.7364 27.9063C31.6541 28.3451 34.2286 29.4585 36.7082 29.4585C39.5561 29.4585 43.2294 28.711 43.2294 25.1909C43.2294 20.2098 35.5024 21.8203 35.5024 18.9736L35.5036 18.9724ZM61.4072 6.62898C59.195 6.62898 57.751 7.7752 57.751 9.67261C57.751 11.57 59.1962 12.7162 61.4072 12.7162C63.6182 12.7162 65.0634 11.57 65.0634 9.67261C65.0634 7.7752 63.6182 6.62898 61.4072 6.62898ZM14.5934 21.5177C14.5934 26.7042 13.0691 29.4573 9.97931 29.4573C8.51341 29.4573 7.19461 28.8386 6.38143 26.878L6.77281 32.9762C6.78621 33.1901 6.61724 33.37 6.40331 33.37H1.06604C0.861833 33.37 0.695312 33.2047 0.695312 32.9993V14.4021C0.695312 14.1979 0.860623 14.0314 1.06604 14.0314H4.64691C4.83045 14.0314 4.98603 14.1651 5.01277 14.3462L5.37499 16.8829C6.18452 14.7753 7.65771 13.5865 9.77751 13.5865C12.9889 13.5865 14.5934 16.3311 14.5934 21.5177ZM9.10661 21.5225C9.10661 19.534 8.77721 17.9404 7.68201 17.9404C6.58685 17.9404 6.25745 19.534 6.25745 21.5225C6.25745 23.5111 6.58685 25.1241 7.68201 25.1241C8.77721 25.1241 9.10661 23.5111 9.10661 21.5225ZM28.918 19.9788V28.6283C28.918 28.8325 28.7527 28.9991 28.5473 28.9991H24.9664C24.7829 28.9991 24.6273 28.8654 24.6006 28.6843L24.304 26.7334C23.3669 28.3974 21.6335 29.4585 19.8188 29.4585C17.1265 29.4585 15.573 28.1154 15.573 25.1605C15.573 20.6753 19.8869 19.9241 23.6452 19.9958C23.3085 18.9918 22.6217 18.4777 21.2215 18.4777C19.3168 18.4777 17.4364 19.6288 16.5151 20.2888C16.2695 20.4638 15.9304 20.2888 15.9304 19.9873V16.4575C15.9304 16.2643 16.0216 16.0819 16.1759 15.9652C16.9648 15.366 19.5793 13.5889 22.8466 13.5889C26.7775 13.5889 28.9193 16.342 28.9193 19.98L28.918 19.9788ZM23.8591 23.2801C23.8628 21.9018 23.7789 21.0436 23.7789 21.0436C23.0727 21.0302 21.7138 21.7826 21.7089 23.4576C21.7053 24.4981 22.0553 25.2869 22.8223 25.3015C23.5771 25.3161 23.8567 24.4276 23.8591 23.2801ZM64.0862 14.0326H58.7246C58.5204 14.0326 58.3539 14.1979 58.3539 14.4033L58.3636 28.6283C58.3636 28.8325 58.5289 28.9991 58.7343 28.9991H64.0959C64.3001 28.9991 64.4666 28.8338 64.4666 28.6283L64.4569 14.4033C64.4569 14.1991 64.2916 14.0326 64.0862 14.0326ZM79.1122 21.5177C79.1122 27.1005 76.5499 29.4573 72.4184 29.4573C68.287 29.4573 65.7247 27.1005 65.7247 21.5177C65.7247 15.9349 68.287 13.578 72.4184 13.578C76.5499 13.578 79.1122 15.9349 79.1122 21.5177ZM73.8272 21.5177C73.8272 19.5291 73.5015 17.9404 72.4184 17.9404C71.3354 17.9404 71.0097 19.5291 71.0097 21.5177C71.0097 23.5062 71.3354 25.1192 72.4184 25.1192C73.5015 25.1192 73.8272 23.5062 73.8272 21.5177ZM130.293 21.5177C130.293 27.1005 127.731 29.4573 123.599 29.4573C119.468 29.4573 116.906 27.1005 116.906 21.5177C116.906 15.9349 119.468 13.578 123.599 13.578C127.731 13.578 130.293 15.9349 130.293 21.5177ZM125.008 21.5177C125.008 19.5291 124.682 17.9404 123.598 17.9404C122.514 17.9404 122.188 19.5291 122.188 21.5177C122.188 23.5062 122.514 25.1192 123.598 25.1192C124.682 25.1192 125.008 23.5062 125.008 21.5177ZM156.324 17.9404C156.528 17.9404 156.695 17.7751 156.695 17.5697V14.4009C156.695 14.1967 156.53 14.0302 156.324 14.0302H152.295V10.2791C152.295 10.0749 152.13 9.90841 151.924 9.90841H148.661C148.476 9.90841 148.318 10.0457 148.295 10.2293C147.986 12.5995 146.803 14.1979 145.232 14.5942C145.065 14.6355 144.947 14.7826 144.947 14.9539V17.5685C144.947 17.7727 145.112 17.9392 145.318 17.9392H146.177V25.1228C146.177 27.1479 147.599 29.4561 151.342 29.4561C154.294 29.4561 155.92 28.3512 156.474 27.8857C156.614 27.7678 156.694 27.5952 156.694 27.4128V24.3024C156.694 24.007 156.366 23.832 156.118 23.9936C155.572 24.3534 154.725 24.8141 153.976 24.8141C153.022 24.8141 152.294 24.4932 152.294 22.89V17.938H156.323L156.324 17.9404ZM144.592 21.5177C144.592 27.1005 142.03 29.4573 137.898 29.4573C133.767 29.4573 131.205 27.1005 131.205 21.5177C131.205 15.9349 133.767 13.578 137.898 13.578C142.03 13.578 144.592 15.9349 144.592 21.5177ZM139.307 21.5177C139.307 19.5291 138.981 17.9404 137.897 17.9404C136.813 17.9404 136.487 19.5291 136.487 21.5177C136.487 23.5062 136.813 25.1192 137.897 25.1192C138.981 25.1192 139.307 23.5062 139.307 21.5177ZM90.0943 13.5865C87.814 13.5865 86.0065 14.5929 85.1022 16.9L84.7169 14.3474C84.6889 14.1663 84.5334 14.0326 84.351 14.0326H80.7702C80.566 14.0326 80.3994 14.1979 80.3994 14.4033V28.6283C80.3994 28.8325 80.5647 28.9991 80.7702 28.9991H86.1354C86.3396 28.9991 86.5061 28.8338 86.5061 28.6283L86.5122 19.1888C86.5122 18.3099 87.1054 17.9404 87.6207 17.9404C88.1361 17.9404 88.7183 18.2188 88.7183 19.1377V28.6271C88.7183 28.8313 88.8836 28.9979 89.0891 28.9979H94.4531C94.6573 28.9979 94.8238 28.8326 94.8238 28.6271V18.378C94.8238 15.4146 93.2643 13.5865 90.0955 13.5865H90.0943ZM117.741 14.7108L116.109 18.1167C116.01 18.3233 115.745 18.395 115.559 18.2601C115.28 18.0571 115.035 17.9416 114.515 17.9404C113.745 17.938 112.484 18.378 112.484 20.0578V28.6283C112.484 28.8325 112.318 28.9991 112.113 28.9991H106.749C106.545 28.9991 106.378 28.8338 106.378 28.6283V14.4021C106.378 14.1979 106.543 14.0314 106.749 14.0314H110.33C110.513 14.0314 110.669 14.1651 110.696 14.3462L111.094 16.8939C111.986 14.176 113.553 13.5865 115.26 13.5865C116.486 13.5865 117.252 13.9755 117.613 14.2404C117.762 14.3498 117.822 14.5431 117.741 14.7108ZM111.379 20.2389C111.379 20.2389 111.37 20.2304 111.366 20.2268V20.2389H111.379ZM104.65 12.3139C104.895 12.4597 105.201 12.2798 105.201 11.9942V8.26383C105.201 8.02316 105.056 7.80437 104.837 7.70348C99.8393 5.38552 95.6358 7.07021 95.6358 10.3484C95.6358 12.969 98.5043 14.0314 98.5043 14.0314H96.8333C96.63 14.0326 96.4659 14.1979 96.4659 14.4021V28.6271C96.4659 28.8313 96.6313 28.9979 96.8363 28.9979H102.198C102.402 28.9979 102.569 28.8326 102.569 28.6271V17.9392H104.833C105.037 17.9392 105.204 17.7739 105.204 17.5685V14.4021C105.204 14.2003 105.039 14.0326 104.837 14.0326C103.519 14.0289 101.403 13.5513 101.403 12.3297C101.403 11.2163 103.165 11.4326 104.652 12.3139H104.65Z" fill="#383E47"/>
</g>
</g>
<defs>
<clipPath id="clip0_37_139">
<rect width="157" height="40" fill="white"/>
</clipPath>
</defs>
</svg>
