<svg width="151" height="40" viewBox="0 0 151 40" fill="none" xmlns="http://www.w3.org/2000/svg">
<g clip-path="url(#clip0_37_184)">
<mask id="mask0_37_184" style="mask-type:luminance" maskUnits="userSpaceOnUse" x="0" y="3" width="151" height="34">
<path d="M150.002 3H0.00195312V37H150.002V3Z" fill="white"/>
</mask>
<g mask="url(#mask0_37_184)">
<path d="M26.1463 20.541H16.6449C16.5314 20.541 16.4395 20.6333 16.4395 20.7474V23.43C16.4395 23.5439 16.5314 23.6364 16.6449 23.6364H25.295C25.7383 22.6785 26.0322 21.6365 26.1463 20.541Z" fill="#383E47"/>
<path d="M24.0071 25.699H16.6449C16.5314 25.699 16.4395 25.7913 16.4395 25.9052V28.7943C16.4395 29.0792 16.6698 29.3115 16.953 29.2968C19.7967 29.1487 22.3183 27.7784 24.0071 25.699Z" fill="#383E47"/>
<path d="M26.1463 18.4763H16.6449C16.5314 18.4763 16.4395 18.3839 16.4395 18.2699V15.5873C16.4395 15.4734 16.5314 15.3809 16.6449 15.3809H25.295C25.7383 16.3388 26.0322 17.3808 26.1463 18.4763Z" fill="#383E47"/>
<path d="M24.0071 13.3173C22.3183 11.2378 19.7967 9.86749 16.953 9.71942C16.6698 9.70467 16.4395 9.93705 16.4395 10.222V13.1109C16.4395 13.2249 16.5314 13.3173 16.6449 13.3173H24.0071Z" fill="#383E47"/>
<path fill-rule="evenodd" clip-rule="evenodd" d="M16.4403 32.9217C23.8167 32.9217 29.7965 26.9164 29.7965 19.5085C29.7965 12.1006 23.8167 6.09535 16.4403 6.09535C9.06391 6.09535 3.08414 12.1006 3.08414 19.5085C3.08414 26.9164 9.06391 32.9217 16.4403 32.9217ZM16.4403 36.017C25.519 36.017 32.8787 28.6259 32.8787 19.5085C32.8787 10.3911 25.519 3 16.4403 3C7.36166 3 0.00195312 10.3911 0.00195312 19.5085C0.00195312 28.6259 7.36166 36.017 16.4403 36.017Z" fill="#383E47"/>
<path d="M52.0692 29.4837C50.7109 29.4837 49.4535 29.2349 48.2971 28.7372C47.159 28.2394 46.1586 27.5481 45.2958 26.6633C44.4515 25.76 43.7907 24.7092 43.3134 23.511C42.8545 22.2943 42.625 20.967 42.625 19.5291C42.625 18.0913 42.8545 16.7732 43.3134 15.5749C43.7907 14.3583 44.4515 13.3075 45.2958 12.4226C46.1586 11.5193 47.159 10.8188 48.2971 10.3211C49.4535 9.82333 50.7109 9.57446 52.0692 9.57446C53.4277 9.57446 54.6759 9.82333 55.8139 10.3211C56.9703 10.8188 57.9708 11.5193 58.8151 12.4226C59.6779 13.3259 60.3388 14.3859 60.7976 15.6026C61.2749 16.8008 61.5135 18.1096 61.5135 19.5291C61.5135 20.9486 61.2749 22.2667 60.7976 23.4833C60.3388 24.6816 59.6779 25.7323 58.8151 26.6356C57.9708 27.5389 56.9703 28.2394 55.8139 28.7372C54.6759 29.2349 53.4277 29.4837 52.0692 29.4837ZM52.0692 26.5803C53.0054 26.5803 53.859 26.4052 54.6299 26.0549C55.4193 25.7047 56.0985 25.2161 56.6675 24.5894C57.2365 23.9442 57.6771 23.1975 57.9891 22.3496C58.3195 21.4831 58.4847 20.543 58.4847 19.5291C58.4847 18.5152 58.3195 17.5842 57.9891 16.7363C57.6771 15.8698 57.2365 15.1233 56.6675 14.4965C56.0985 13.8513 55.4193 13.3535 54.6299 13.0033C53.859 12.653 53.0054 12.4779 52.0692 12.4779C51.1331 12.4779 50.2704 12.653 49.481 13.0033C48.7101 13.3535 48.031 13.8421 47.4435 14.4688C46.8745 15.0957 46.434 15.8422 46.1218 16.7086C45.8098 17.5566 45.6538 18.4968 45.6538 19.5291C45.6538 20.543 45.8098 21.4831 46.1218 22.3496C46.434 23.216 46.8745 23.9626 47.4435 24.5894C48.031 25.2161 48.7101 25.7047 49.481 26.0549C50.2704 26.4052 51.1331 26.5803 52.0692 26.5803Z" fill="#383E47"/>
<path d="M63.9062 29.208V14.6908H66.7424V17.6773L66.2467 18.0091C66.4303 17.3639 66.7883 16.774 67.3206 16.2394C67.8529 15.6863 68.4861 15.2439 69.2204 14.9121C69.9546 14.5618 70.7073 14.3867 71.4783 14.3867C72.5796 14.3867 73.4973 14.6079 74.2316 15.0503C74.9659 15.4744 75.5166 16.1287 75.8836 17.0137C76.2507 17.8985 76.4344 19.0138 76.4344 20.3595V29.208H73.5983V20.5531C73.5983 19.7235 73.4882 19.0414 73.2679 18.5069C73.0476 17.9538 72.7081 17.5574 72.2491 17.3178C71.7902 17.0597 71.2212 16.9492 70.542 16.9859C69.9913 16.9859 69.4867 17.0781 69.0277 17.2625C68.5688 17.4285 68.165 17.6681 67.8162 17.9814C67.4858 18.2948 67.2196 18.6635 67.0177 19.0875C66.8341 19.4931 66.7424 19.9355 66.7424 20.4148V29.208H65.338C65.0994 29.208 64.8609 29.208 64.6222 29.208C64.3836 29.208 64.145 29.208 63.9062 29.208Z" fill="#383E47"/>
<path d="M86.0977 29.2078V9.85156H93.642C95.0188 9.85156 96.2578 10.082 97.3592 10.5429C98.4789 11.0037 99.4334 11.6674 100.223 12.5338C101.012 13.4002 101.618 14.4233 102.04 15.6031C102.462 16.7829 102.673 18.0918 102.673 19.5297C102.673 20.9676 102.462 22.2857 102.04 23.4839C101.618 24.6637 101.012 25.6868 100.223 26.5532C99.4518 27.4012 98.5065 28.0557 97.3867 28.5165C96.2669 28.9774 95.0188 29.2078 93.642 29.2078H86.0977ZM89.0714 26.6361L88.9888 26.332H93.5044C94.4772 26.332 95.34 26.1753 96.0926 25.862C96.8635 25.5486 97.506 25.1061 98.02 24.5346C98.5523 23.9448 98.9561 23.2258 99.2315 22.3778C99.5068 21.5299 99.6445 20.5804 99.6445 19.5297C99.6445 18.4789 99.5068 17.5388 99.2315 16.7092C98.9561 15.8612 98.5523 15.1423 98.02 14.5523C97.4877 13.9625 96.8452 13.5108 96.0926 13.1974C95.34 12.884 94.4772 12.7274 93.5044 12.7274H88.9062L89.0714 12.4785V26.6361Z" fill="#383E47"/>
<path d="M112.424 29.4849C110.937 29.4849 109.615 29.1715 108.459 28.5448C107.321 27.8996 106.421 27.0239 105.761 25.9179C105.118 24.8118 104.797 23.5398 104.797 22.1019C104.797 20.9589 104.981 19.9174 105.348 18.9773C105.714 18.0371 106.22 17.226 106.862 16.5439C107.523 15.8434 108.303 15.3088 109.202 14.9401C110.12 14.5529 111.111 14.3594 112.176 14.3594C113.113 14.3594 113.984 14.5438 114.791 14.9124C115.6 15.2627 116.297 15.7512 116.884 16.378C117.49 17.0047 117.949 17.7514 118.261 18.6178C118.592 19.4657 118.748 20.3967 118.729 21.4106L118.702 22.6273H106.89L106.256 20.3598H116.251L115.838 20.83V20.1662C115.783 19.5579 115.581 19.0141 115.232 18.5348C114.884 18.0556 114.443 17.6776 113.911 17.4011C113.379 17.1246 112.8 16.9863 112.176 16.9863C111.185 16.9863 110.35 17.1799 109.671 17.567C108.992 17.9357 108.477 18.4887 108.129 19.2261C107.779 19.945 107.606 20.8391 107.606 21.9084C107.606 22.9222 107.816 23.8071 108.239 24.5629C108.661 25.3003 109.258 25.8717 110.028 26.2773C110.799 26.6829 111.69 26.8857 112.7 26.8857C113.415 26.8857 114.076 26.7658 114.681 26.5262C115.306 26.2865 115.976 25.8533 116.692 25.2266L118.123 27.2451C117.682 27.6875 117.141 28.0747 116.499 28.4065C115.875 28.7384 115.204 29.0056 114.489 29.2084C113.792 29.3928 113.103 29.4849 112.424 29.4849Z" fill="#383E47"/>
<path d="M127.845 29.4845C126.505 29.4845 125.303 29.1528 124.238 28.4891C123.191 27.8254 122.356 26.9222 121.732 25.7793C121.126 24.6363 120.824 23.3551 120.824 21.9356C120.824 20.5162 121.126 19.235 121.732 18.0921C122.356 16.9492 123.191 16.0458 124.238 15.3822C125.303 14.7185 126.505 14.3867 127.845 14.3867C129.13 14.3867 130.296 14.6541 131.342 15.1886C132.406 15.7048 133.215 16.4145 133.765 17.3178L132.195 19.2534C131.902 18.8295 131.526 18.4423 131.066 18.0921C130.608 17.7418 130.121 17.4652 129.607 17.2625C129.094 17.0597 128.598 16.9583 128.121 16.9583C127.239 16.9583 126.45 17.1795 125.753 17.6219C125.074 18.0459 124.532 18.6359 124.128 19.3917C123.725 20.1475 123.522 20.9955 123.522 21.9356C123.522 22.8758 123.733 23.7238 124.155 24.4796C124.577 25.217 125.137 25.8069 125.835 26.2493C126.532 26.6917 127.304 26.913 128.148 26.913C128.644 26.913 129.12 26.83 129.58 26.6641C130.057 26.4982 130.516 26.2493 130.956 25.9175C131.397 25.5857 131.81 25.1801 132.195 24.7008L133.765 26.6365C133.178 27.466 132.333 28.148 131.232 28.6827C130.149 29.2173 129.02 29.4845 127.845 29.4845Z" fill="#383E47"/>
<path d="M138.412 24.6732L138.275 21.5762L145.186 14.6909H149.013L138.412 24.6732ZM135.824 29.208V9.81055H138.661V29.208H135.824ZM145.571 29.208L140.12 22.8205L142.129 20.9678L149.206 29.208H145.571Z" fill="#383E47"/>
</g>
</g>
<defs>
<clipPath id="clip0_37_184">
<rect width="151" height="40" fill="white"/>
</clipPath>
</defs>
</svg>
