<svg width="111" height="40" viewBox="0 0 111 40" fill="none" xmlns="http://www.w3.org/2000/svg">
<g clip-path="url(#clip0_37_146)">
<mask id="mask0_37_146" style="mask-type:luminance" maskUnits="userSpaceOnUse" x="0" y="6" width="111" height="31">
<path d="M110.463 6.68945H0.207031V36.3105H110.463V6.68945Z" fill="white"/>
</mask>
<g mask="url(#mask0_37_146)">
<path opacity="0.5" fill-rule="evenodd" clip-rule="evenodd" d="M80.5942 12.5942C80.1499 13.0385 79.7509 13.5264 79.4037 14.0505C78.5436 12.7537 77.376 11.6899 76.0049 10.954C74.6338 10.2181 73.102 9.83292 71.5459 9.83285H51.9549V12.2297C50.2276 10.6856 47.992 9.832 45.6752 9.83203H35.5111C33.9552 9.832 32.4235 10.217 31.0526 10.9528C29.6816 11.6886 28.5141 12.7523 27.6542 14.0489C26.7944 12.752 25.6269 11.6882 24.256 10.9524C22.885 10.2166 21.3531 9.83171 19.7972 9.83203H0.207031V36.3099H19.7997C21.3558 36.31 22.8877 35.9249 24.2587 35.1887C25.6297 34.4526 26.7971 33.3885 27.6566 32.0914C28.5162 33.3885 29.6836 34.4526 31.0546 35.1887C32.4256 35.9249 33.9575 36.31 35.5136 36.3099H45.6769C47.9939 36.3099 50.2286 35.4566 51.9557 33.9131V36.3099H68.0374V31.2307H71.5483C72.8726 31.2309 74.1821 30.9521 75.3914 30.4124C76.6007 29.8727 77.6827 29.0842 78.5669 28.0983H84.3035V36.3099H100.385V28.0983H106.851V9.83203H87.2598C86.0218 9.83212 84.7959 10.0761 83.6522 10.55C82.5086 11.024 81.4694 11.7186 80.5942 12.5942Z" fill="#99A2AF"/>
<path d="M22.9421 8.26172H4.92188V31.5964H22.9421C25.026 31.5963 27.0245 30.7688 28.4985 29.2959C29.9715 27.8219 30.799 25.8233 30.7991 23.7395V16.1203C30.7992 15.0884 30.5961 14.0667 30.2013 13.1133C29.8064 12.16 29.2277 11.2937 28.4981 10.5641C27.7685 9.83441 26.9023 9.25559 25.949 8.86069C24.9957 8.46579 23.974 8.26172 22.9421 8.26172Z" fill="#FAFAFA"/>
<path fill-rule="evenodd" clip-rule="evenodd" d="M3.35156 6.68945H22.9442C25.4446 6.68945 27.8425 7.68273 29.6106 9.45076C31.3786 11.2188 32.3719 13.6168 32.3719 16.1172V23.738C32.3719 26.2384 31.3786 28.6363 29.6106 30.4044C27.8425 32.1724 25.4446 33.1657 22.9442 33.1657H3.35239L3.35156 6.68945ZM6.49468 9.83257V30.0234H22.9442C23.7697 30.0234 24.5871 29.8608 25.3497 29.5449C26.1123 29.2289 26.8053 28.7659 27.3889 28.1821C27.9726 27.5984 28.4356 26.9054 28.7514 26.1427C29.0672 25.38 29.2297 24.5626 29.2296 23.7371V16.118C29.229 14.8751 28.8602 13.6603 28.1697 12.6268C27.4793 11.5934 26.4981 10.7877 25.3501 10.3114C24.5873 9.99561 23.7698 9.83317 22.9442 9.83339L6.49468 9.83257Z" fill="#383E47"/>
<path fill-rule="evenodd" clip-rule="evenodd" d="M19.4355 25.8087V15.4414H22.5787V25.8087H19.4355Z" fill="#383E47"/>
<path d="M74.6938 8.26172H56.6719V31.5964H69.6113V26.5173H74.6938C76.7769 26.5166 78.7746 25.6888 80.2476 24.2158C81.7206 22.7428 82.5484 20.7451 82.5491 18.6619V16.1195C82.5492 15.0878 82.3461 14.0662 81.9514 13.113C81.5567 12.1598 80.9781 11.2937 80.2487 10.5641C79.5192 9.83455 78.6532 9.25578 77.7001 8.86087C76.747 8.46596 75.7255 8.26183 74.6938 8.26172Z" fill="#FAFAFA"/>
<path fill-rule="evenodd" clip-rule="evenodd" d="M55.1016 6.68945H74.6942C77.1946 6.68945 79.5925 7.68273 81.3606 9.45076C83.1286 11.2188 84.1219 13.6168 84.1219 16.1172V18.6596C84.1215 21.1599 83.128 23.5576 81.3601 25.3255C79.5922 27.0935 77.1944 28.0869 74.6942 28.0873H71.1825V33.1657H55.1016V6.68945ZM58.2447 9.83257V30.0234H68.0393V24.945H74.6942C76.3609 24.9445 77.9592 24.2825 79.1382 23.1044C80.3163 21.9255 80.9783 20.3271 80.9788 18.6604V16.118C80.9785 14.4514 80.3168 12.8531 79.139 11.674C77.9598 10.4957 76.3612 9.83366 74.6942 9.83339L58.2439 9.83175L58.2447 9.83257Z" fill="#383E47"/>
<path fill-rule="evenodd" clip-rule="evenodd" d="M71.1953 21.7846V15.4375H74.3384V21.7846H71.1953Z" fill="#383E47"/>
<path d="M48.823 8.26172H38.6589C37.1049 8.26103 35.5856 8.72149 34.2934 9.58479C33.0013 10.4481 31.9943 11.6754 31.4001 13.1113C31.0054 14.0645 30.8024 15.0861 30.8027 16.1178V23.7386C30.803 25.8222 31.6307 27.8204 33.1039 29.2938C34.5772 30.7672 36.5753 31.5952 38.6589 31.5956H48.823C50.9068 31.5954 52.9053 30.768 54.3794 29.295C55.8527 27.8212 56.6805 25.8226 56.6808 23.7386V16.1195C56.6808 14.0355 55.8529 12.0368 54.3793 10.5632C52.9057 9.08959 50.907 8.26172 48.823 8.26172Z" fill="#FAFAFA"/>
<path fill-rule="evenodd" clip-rule="evenodd" d="M31.9893 9.45079C33.7574 7.68275 36.1553 6.68947 38.6557 6.68945H48.8223C50.0603 6.68945 51.2863 6.93331 52.4301 7.40709C53.5739 7.88088 54.6132 8.57532 55.4887 9.45076C56.3641 10.3262 57.0586 11.3655 57.5323 12.5093C58.0061 13.6531 58.25 14.8791 58.25 16.1172V23.738C58.25 26.2384 57.2567 28.6363 55.4887 30.4044C53.7206 32.1724 51.3227 33.1657 48.8223 33.1657H38.6582C36.1578 33.1657 33.7598 32.1724 31.9918 30.4044C30.2237 28.6363 29.2305 26.2384 29.2305 23.738V16.1188C29.2299 14.8806 29.4733 13.6545 29.9467 12.5104C30.42 11.3663 31.1141 10.3266 31.9893 9.45079ZM38.6557 9.83175C36.9887 9.83202 35.39 10.494 34.2109 11.6724C33.0326 12.8515 32.3706 14.4502 32.3703 16.1172V23.738C32.3705 25.405 33.0329 27.0038 34.2118 28.1825C35.3907 29.3612 36.9895 30.0234 38.6565 30.0234H48.8223C50.0654 30.0231 51.2806 29.6543 52.3143 28.9637C53.3479 28.273 54.1536 27.2915 54.6296 26.143C54.9453 25.3805 55.1078 24.5633 55.1077 23.738V16.1188C55.1073 14.8758 54.7385 13.6608 54.0481 12.6272C53.3576 11.5936 52.3763 10.7877 51.2282 10.3114C50.4654 9.99561 49.6479 9.83317 48.8223 9.83339L38.6557 9.83175Z" fill="#383E47"/>
<path fill-rule="evenodd" clip-rule="evenodd" d="M42.1626 15.4414V25.8087H39.0195V15.4414H42.1626Z" fill="#383E47"/>
<path d="M108.429 8.26172H90.4058C89.3741 8.26155 88.3525 8.46471 87.3994 8.8596C86.4463 9.25449 85.5803 9.83335 84.851 10.5631C84.1212 11.2923 83.5422 12.1583 83.1472 13.1114C82.7522 14.0645 82.5489 15.0861 82.5488 16.1178V23.384H89.0144V31.5956H101.954V23.384H108.419L108.429 8.26172Z" fill="#FAFAFA"/>
<path fill-rule="evenodd" clip-rule="evenodd" d="M83.7422 9.45079C85.5105 7.6827 87.9088 6.68943 90.4094 6.68945H110.001V24.9541H103.536V33.1657H87.4539V24.9541H80.9883V16.118C80.9863 13.6184 81.9768 11.2203 83.7422 9.45079ZM90.4094 9.83175C89.5839 9.83175 88.7665 9.99435 88.0039 10.3103C87.2412 10.6262 86.5483 11.0892 85.9647 11.673C85.381 12.2567 84.918 12.9497 84.6022 13.7124C84.2864 14.4751 84.1239 15.2925 84.124 16.118V21.8118H90.5896V30.0234H100.387V21.8118H106.852V9.83175H90.4094Z" fill="#383E47"/>
</g>
</g>
<defs>
<clipPath id="clip0_37_146">
<rect width="111" height="40" fill="white"/>
</clipPath>
</defs>
</svg>
