<svg width="139" height="40" viewBox="0 0 139 40" fill="none" xmlns="http://www.w3.org/2000/svg">
<g clip-path="url(#clip0_37_94)">
<mask id="mask0_37_94" style="mask-type:luminance" maskUnits="userSpaceOnUse" x="0" y="4" width="139" height="35">
<path d="M138.467 4H0.537109V38.1877H138.467V4Z" fill="white"/>
</mask>
<g mask="url(#mask0_37_94)">
<path d="M98.858 15.4484C96.8304 15.4484 95.3833 16.141 94.673 17.4525L94.2913 18.1628V15.7903H90.9919V30.211H94.4623V21.6316C94.4623 19.5819 95.5763 18.4059 97.5171 18.4059C99.3679 18.4059 100.429 19.5509 100.429 21.5462V30.211H103.901V20.9273C103.901 17.4938 102.016 15.4484 98.858 15.4484ZM82.028 15.4484C77.9328 15.4484 75.3967 18.0036 75.3967 22.1165V24.1412C75.3967 28.0964 77.9623 30.5529 82.0928 30.5529C84.8558 30.5529 86.7921 29.5405 88.0108 27.4583L85.8593 26.2205C84.959 27.4215 83.5207 28.1656 82.0943 28.1656C80.0032 28.1656 78.7551 26.8747 78.7551 24.7115V24.1383H88.4411V21.7466C88.4411 17.9152 85.9257 15.4484 82.0309 15.4484H82.028ZM85.2832 21.807H78.7433V21.4607C78.7433 19.0867 79.9089 17.7767 82.025 17.7767C84.063 17.7767 85.2802 19.0676 85.2802 21.2308L85.2832 21.807ZM138.365 13.4163V10.6577H126.361V13.4163H130.57V27.4465H126.361V30.2051H138.365V27.4465H134.155V13.4163H138.365ZM47.3466 10.2598C41.9856 10.2598 38.6523 13.6005 38.6523 18.9806V21.8895C38.6523 27.2682 41.9842 30.6103 47.3466 30.6103C52.7091 30.6103 56.0409 27.2682 56.0409 21.8895V18.9806C56.0394 13.5946 52.7032 10.2598 47.3466 10.2598ZM52.4541 22.0885C52.4541 25.6605 50.593 27.7088 47.3466 27.7088C44.1003 27.7088 42.2406 25.6605 42.2406 22.0885V18.7802C42.2406 15.2082 44.1032 13.1599 47.3481 13.1599C50.593 13.1599 52.4556 15.2082 52.4556 18.7802L52.4541 22.0885ZM66.9412 15.4484C65.1198 15.4484 63.543 16.2029 62.7208 17.4658L62.3479 18.0405V15.7903H59.0471V35.1726H62.5189V28.1524L62.8902 28.7035C63.6712 29.8617 65.1964 30.5529 66.9707 30.5529C69.9635 30.5529 72.983 28.5974 72.983 24.2267V21.7746C72.983 18.6255 71.1218 15.4484 66.9412 15.4484ZM69.5112 24.0572C69.5112 26.3811 68.1554 27.8252 65.9745 27.8252C63.9409 27.8252 62.5218 26.2986 62.5218 24.1147V21.9455C62.5218 19.7351 63.9527 18.179 66.004 18.179C68.1687 18.179 69.5141 19.6216 69.5141 21.9455L69.5112 24.0572ZM113.494 10.6592L106.49 30.211H110.016L111.357 26.0201H119.409L119.422 26.0613L120.748 30.211H124.273L117.258 10.6577L113.494 10.6592ZM112.218 23.2629L115.377 13.378L118.504 23.2629H112.218Z" fill="#383E47"/>
<path d="M31.8633 18.0163C32.2433 16.8756 32.3751 15.667 32.2501 14.4712C32.1251 13.2755 31.746 12.1203 31.1383 11.0829C30.2361 9.51511 28.8598 8.27396 27.2074 7.53807C25.555 6.80218 23.7118 6.6095 21.9429 6.98776C21.1452 6.08803 20.1644 5.36911 19.0662 4.87913C17.9681 4.38915 16.7779 4.13941 15.5755 4.14664C13.7663 4.14252 12.0026 4.71318 10.5388 5.7763C9.07495 6.83941 7.98664 8.34003 7.43085 10.0617C6.25303 10.3033 5.14038 10.7937 4.16731 11.4999C3.19425 12.2061 2.38319 13.112 1.7884 14.1569C0.881495 15.7221 0.494601 17.5347 0.683408 19.3338C0.872216 21.1329 1.62699 22.8257 2.83908 24.1686C2.46058 25.3082 2.32947 26.5155 2.45449 27.7098C2.57951 28.9041 2.95779 30.058 3.5641 31.0945C4.46539 32.6654 5.84234 33.9093 7.49634 34.6469C9.15034 35.3845 10.9959 35.5777 12.7668 35.1985C13.5639 36.0972 14.5435 36.8154 15.6403 37.3054C16.737 37.7953 17.9257 38.0456 19.1269 38.0397C20.936 38.0438 22.6997 37.4731 24.1636 36.41C25.6274 35.3469 26.7157 33.8463 27.2715 32.1246C28.4491 31.8829 29.5615 31.3925 30.5343 30.6863C31.5071 29.9801 32.3179 29.0742 32.9125 28.0294C33.8217 26.4647 34.2101 24.6515 34.0215 22.8517C33.8329 21.0518 33.0771 19.3585 31.8633 18.0163ZM19.1269 35.8292C17.6411 35.8305 16.2023 35.3089 15.0627 34.3556C15.1128 34.3276 15.21 34.279 15.266 34.2422L22.0151 30.3459C22.1845 30.2498 22.3251 30.1102 22.4225 29.9415C22.5199 29.7729 22.5705 29.5814 22.5692 29.3866V19.8701L25.4207 21.5161C25.4361 21.5234 25.4493 21.5346 25.4591 21.5485C25.469 21.5624 25.475 21.5787 25.4767 21.5957V29.4721C25.4767 31.1568 24.8079 32.7727 23.6173 33.9647C22.4267 35.1567 20.8116 35.8273 19.1269 35.8292ZM5.48274 30.0026C4.73873 28.7168 4.47012 27.2105 4.72383 25.7468C4.77393 25.7778 4.86235 25.8308 4.92424 25.8662L11.6748 29.7639C11.8429 29.8623 12.0342 29.9142 12.2289 29.9142C12.4237 29.9142 12.6149 29.8623 12.783 29.7639L21.019 25.0012V28.2932C21.0205 28.3101 21.0177 28.3272 21.0107 28.3426C21.0037 28.3581 20.9929 28.3716 20.9792 28.3816L14.1564 32.3191C12.6976 33.1591 10.9651 33.3861 9.33909 32.9505C7.71306 32.5148 6.32621 31.452 5.48274 29.9952V30.0026ZM3.71441 15.2665C4.45493 13.9788 5.62507 12.9928 7.01971 12.4814V20.5037C7.01872 20.6984 7.06951 20.8898 7.16687 21.0584C7.26423 21.227 7.40467 21.3666 7.57379 21.463L15.8113 26.2198L12.9495 27.8718C12.9356 27.8812 12.9195 27.8869 12.9027 27.8884C12.886 27.89 12.8692 27.8873 12.8537 27.8806L6.03239 23.9416C4.57488 23.0984 3.51154 21.7113 3.07583 20.0848C2.64013 18.4583 2.86767 16.7254 3.70851 15.2665H3.71441ZM27.1448 20.7189L18.9073 15.9621L21.7558 14.3146C21.7698 14.3053 21.7859 14.2996 21.8026 14.2981C21.8193 14.2966 21.8361 14.2992 21.8516 14.3057L28.6729 18.2447C29.7177 18.8484 30.5689 19.7372 31.1269 20.8071C31.6848 21.877 31.9265 23.0837 31.8235 24.2859C31.7205 25.4882 31.2772 26.6362 30.5454 27.5957C29.8137 28.5551 28.8237 29.2862 27.6915 29.7035V21.6826C27.6937 21.4875 27.6438 21.2952 27.5469 21.1258C27.45 20.9564 27.3097 20.8159 27.1404 20.7189H27.1448ZM29.9844 16.4454C29.9343 16.4145 29.8459 16.3614 29.784 16.326L23.0334 12.4283C22.8653 12.3299 22.6741 12.278 22.4793 12.278C22.2846 12.278 22.0933 12.3299 21.9253 12.4283L13.6878 17.1837V13.8931C13.6872 13.8762 13.6906 13.8593 13.6978 13.844C13.705 13.8286 13.7157 13.8151 13.729 13.8047L20.5504 9.86719C21.5956 9.2647 22.7907 8.97236 23.996 9.02436C25.2013 9.07637 26.3668 9.47057 27.3562 10.1609C28.3456 10.8511 29.118 11.8089 29.5829 12.9221C30.0478 14.0353 30.1861 15.258 29.9815 16.4469L29.9844 16.4454ZM12.1331 22.3163L9.28023 20.6702C9.26557 20.6621 9.25301 20.6507 9.24354 20.6369C9.23408 20.6231 9.22797 20.6073 9.2257 20.5907V12.7142C9.22479 11.507 9.56801 10.3246 10.2152 9.30546C10.8623 8.28637 11.7865 7.47288 12.8795 6.96033C13.9725 6.44778 15.189 6.25743 16.3863 6.41157C17.5836 6.56572 18.7122 7.05798 19.6397 7.83066C19.5896 7.85866 19.4997 7.90729 19.4363 7.94413L12.6872 11.8404C12.5181 11.9368 12.3777 12.0764 12.2803 12.245C12.1829 12.4136 12.1321 12.605 12.1331 12.7997V22.3163ZM13.6819 18.9756L17.3512 16.8565L21.019 18.9756V23.2107L17.3497 25.3298L13.6804 23.2107L13.6819 18.9756Z" fill="#383E47"/>
</g>
</g>
<defs>
<clipPath id="clip0_37_94">
<rect width="139" height="40" fill="white"/>
</clipPath>
</defs>
</svg>
