<svg width="191" height="40" viewBox="0 0 191 40" fill="none" xmlns="http://www.w3.org/2000/svg">
<g clip-path="url(#clip0_37_164)">
<mask id="mask0_37_164" style="mask-type:luminance" maskUnits="userSpaceOnUse" x="0" y="0" width="191" height="40">
<path d="M190.191 0H0.191406V40H190.191V0Z" fill="white"/>
</mask>
<g mask="url(#mask0_37_164)">
<mask id="mask1_37_164" style="mask-type:luminance" maskUnits="userSpaceOnUse" x="0" y="10" width="191" height="20">
<path d="M190.191 10.8064H0.191406V29.1935H190.191V10.8064Z" fill="white"/>
</mask>
<g mask="url(#mask1_37_164)">
<path d="M13.1977 10.8064V17.7793H5.38249V10.8064H0.191406V29.1935H5.38249V22.1633H13.2022V29.1935H18.3932V10.8064H13.1977Z" fill="#383E47"/>
<path d="M30.2185 16.3503L26.3507 10.8064H19.9688L27.462 21.1092V29.1935H32.6796V21.0827L40.1685 10.8064H34.0821L30.2185 16.3503Z" fill="#383E47"/>
<path d="M52.0812 10.8064H41.752V29.1935H46.9431V23.407H52.0812C56.8092 23.407 59.3011 21.215 59.3011 17.1089C59.3011 13.0028 56.8136 10.8064 52.0812 10.8064ZM53.9953 17.1133C53.9953 18.4673 53.2103 19.0848 51.4549 19.0848H46.9342V15.133H51.4549C53.2147 15.133 53.9953 15.724 53.9953 17.1045V17.1133Z" fill="#383E47"/>
<path d="M61.3242 29.1935H78.2827V24.9242H66.5154V21.9471H76.5226V17.9954H66.5154V15.0757H78.2827V10.8064H61.3242V29.1935Z" fill="#383E47"/>
<path d="M98.4423 16.8355C98.4423 12.8925 96.091 10.8064 91.5709 10.8064H80.6152V29.1935H85.8065V22.8381H89.1315L93.2954 29.1935L93.3085 29.1847H99.3371L94.817 22.375C97.1943 21.5635 98.4377 19.6979 98.4377 16.8311L98.4423 16.8355ZM90.8607 18.6217H85.8065V15.0492H90.8607C92.4266 15.0492 93.1583 15.6182 93.1583 16.8355C93.1583 18.0527 92.4266 18.6217 90.8607 18.6217Z" fill="#383E47"/>
<path d="M106.307 10.8064H101.115V29.1935H117.121V24.7875H106.307V10.8064Z" fill="#383E47"/>
<path d="M124.644 10.8064H119.453V29.1935H124.644V10.8064Z" fill="#383E47"/>
<path d="M141.096 21.0827L133.686 10.8064H127.789V29.1935H132.738V17.325L141.307 29.1935H146.044V10.8064H141.096V21.0827Z" fill="#383E47"/>
<path d="M149.189 29.1935H166.143V24.9242H154.381V21.9471H164.388V17.9954H154.381V15.0757H166.143V10.8064H149.189V29.1935Z" fill="#383E47"/>
<path d="M189.721 10.8064H171.334V29.1935H189.721V10.8064Z" fill="#383E47"/>
</g>
</g>
</g>
<defs>
<clipPath id="clip0_37_164">
<rect width="191" height="40" fill="white"/>
</clipPath>
</defs>
</svg>
