<svg width="110" height="40" viewBox="0 0 110 40" fill="none" xmlns="http://www.w3.org/2000/svg">
<g clip-path="url(#clip0_37_82)">
<mask id="mask0_37_82" style="mask-type:luminance" maskUnits="userSpaceOnUse" x="0" y="1" width="110" height="38">
<path d="M110 1.66602H0V38.3327H110V1.66602Z" fill="white"/>
</mask>
<g mask="url(#mask0_37_82)">
<path d="M42.1128 33.5639C38.0398 30.9332 32.5124 30.4719 23.5979 32.951C14.0944 35.1904 10.9263 36.6263 6.76486 33.7445C5.1662 32.3291 4.59352 30.0499 5.02113 26.7668C6.01355 21.4144 8.69627 16.2639 13.461 10.5506C16.1207 7.57864 18.5877 5.02813 21.8454 4.00401C24.3422 3.36156 24.109 5.32902 23.8069 5.61029C23.4879 5.61029 22.9526 5.66064 22.5387 5.93167C22.2027 6.19333 21.2803 7.03628 21.2313 8.17104C21.1598 9.90786 22.9526 9.54639 23.7258 8.59281C24.5591 7.51805 25.7906 5.46014 24.8221 3.54215C24.4158 2.8593 23.7141 2.38778 22.8428 2.2268C19.86 2.05616 17.0819 3.48185 14.5179 5.05799C8.91081 8.96394 4.42539 14.3763 1.88745 20.3007C0.42393 23.8753 -0.899189 28.9953 1.08476 33.1623C2.6192 36.0538 5.80514 37.5899 9.60549 37.2691C12.271 36.9878 15.4943 36.1241 17.6624 35.6022C19.8308 35.0801 30.9281 31.2546 34.5743 37.9124C34.5743 37.9124 35.7868 35.5525 38.8171 35.5018C41.3084 35.2715 44.9024 36.2256 47.5194 38.153C46.6473 36.838 44.1753 34.9 42.1128 33.5639Z" fill="#383E47"/>
<path d="M24.7315 11.2246C22.6559 9.85894 18.4843 12.4695 15.1427 16.9476C12.087 20.9645 10.768 25.6332 12.2037 27.7918C14.3395 30.3317 18.3045 26.6377 19.991 24.6597L20.2087 24.4282C21.3552 23.1933 22.2411 21.707 23.0984 20.2813C23.0984 20.2813 23.8862 18.9759 23.9238 18.9157C24.4113 18.8255 24.998 18.685 25.6588 18.4942C25.6495 18.5243 23.1293 22.7718 23.3865 24.8801C23.4665 25.5231 23.4052 27.8731 25.693 28.5855C28.742 29.0977 31.1766 26.7275 33.3243 24.6187C33.3243 24.6187 33.6906 24.2678 33.8976 24.0676C33.845 24.2774 33.7767 24.5584 33.7767 24.5584C32.8841 27.6715 34.0873 28.3242 34.8404 28.5648C37.115 29.2283 39.8325 25.9139 39.8413 25.9139C39.7709 26.9579 39.5651 27.8216 40.6623 28.5144C41.6979 28.8861 42.7461 28.3195 43.5429 27.7874C46.4128 25.759 48.7245 22.5854 50.592 19.8411H49.4008C49.3868 19.8411 46.4618 24.0925 44.5619 25.0165C44.559 25.0165 44.2134 25.1947 44.0143 25.0537C43.7677 24.8426 43.8649 24.4042 44.0173 24.0936C44.0269 24.074 51.3518 11.335 51.3518 11.335H47.8932C47.8932 11.335 47.5152 11.9479 47.4849 11.9877C47.4615 11.9681 47.4061 11.8624 47.3678 11.8118C45.2251 8.83979 40.3731 13.4113 36.7201 18.7128C35.3135 20.7514 33.5228 23.0464 31.6664 24.703C31.6664 24.703 28.916 27.2319 27.7405 25.4151C27.3109 24.6521 27.4431 23.5355 27.6857 22.8032C29.054 18.8972 31.4119 15.3524 34.0949 13.2132C34.8523 12.6216 35.6757 12.4504 36.0838 12.7013C36.4729 12.9325 36.5359 13.5041 36.2896 13.896C35.6647 13.8764 35.1644 14.0664 34.7572 14.4881C33.9554 15.3317 33.6766 16.145 33.9314 16.9084C35.1699 18.6754 37.6398 15.1815 37.5202 13.0528C37.4776 12.2894 37.0713 11.5665 36.4656 11.215C35.5622 10.6729 34.1848 10.8134 33.2931 11.2454C32.0993 11.697 30.2099 13.2732 29.1069 14.4984C27.7181 16.035 25.3369 17.7417 24.5923 17.5505C24.8363 16.8973 26.8474 12.7703 24.7315 11.2246ZM41.4046 17.3293C42.0774 16.3956 44.0356 13.8957 44.5123 13.474C46.1177 12.0579 46.7595 12.6811 46.8153 13.1221C45.317 15.8128 43.5488 18.8958 41.8856 21.6672C41.8894 21.6573 41.3652 22.4604 41.3652 22.4604C40.6311 23.5849 39.8915 24.5488 38.6854 25.2217C38.5138 25.272 38.23 25.2919 38.0415 25.1514C37.8147 25.0004 37.7248 24.7495 37.7502 24.4882C37.8229 23.6247 38.6997 20.9844 41.4046 17.3293ZM22.5911 18.9458C22.5911 18.9458 22.5607 19.0365 22.5461 19.0664C22.5423 19.0664 21.0383 21.5264 21.0383 21.5264C20.1308 22.7408 18.9971 24.2675 17.5806 25.0004C17.1608 25.1406 16.58 25.2313 16.2846 24.8602C15.6579 24.1068 15.9808 23.0622 16.2434 22.2192L16.336 21.9181C17.089 19.8701 18.2834 18.0628 19.4457 16.3859C19.4606 16.376 19.4927 16.366 19.5047 16.366C19.5073 16.3763 19.5117 16.3763 19.514 16.3962C20.2437 17.8017 21.6115 18.4541 22.634 18.7561C22.6401 18.7561 22.6471 18.7661 22.6471 18.7866C22.6477 18.8153 22.6308 18.8557 22.5911 18.9458ZM24.0158 16.0444C24.0097 16.0643 23.3462 17.5904 23.3462 17.5904C23.2502 17.6706 23.0984 17.6307 22.925 17.5904L22.6273 17.54C21.6921 17.2491 20.9869 16.6265 20.7697 15.8837C20.47 14.4381 21.7017 13.3033 22.2443 12.8915C22.7651 12.5297 23.575 12.3389 24.0447 12.7106C24.3345 13.0522 24.4446 13.4939 24.4446 13.9759C24.4446 14.6283 24.2437 15.3615 24.0158 16.0444Z" fill="#383E47"/>
<path d="M67.735 20.7025C67.4008 19.9795 66.6101 19.518 65.7662 19.568C63.0266 19.8189 60.3471 22.0781 58.9399 25.3211C58.2017 26.9874 57.7986 28.3636 57.5348 30.5524C58.3865 29.5689 60.1241 27.9518 62.0958 27.0682C62.0958 27.0682 62.3643 24.9699 63.7324 23.1025C64.2499 22.3284 65.2864 21.0841 66.4498 21.4149C67.4662 21.7568 67.1089 24.5786 65.7584 27.3088C64.7584 29.3169 63.2289 31.3263 61.6807 32.7116C60.3123 33.8762 58.2878 35.2817 56.5169 34.1973C55.4016 33.5346 54.8325 32.149 54.9527 30.3618C55.486 25.2913 57.7872 20.9735 61.0815 16.0534C64.4781 11.4851 68.2222 6.79592 73.2657 4.29547C74.294 3.77331 75.2473 3.65273 76.0704 3.97439C76.0704 3.97439 71.3357 6.58489 69.0788 11.4145C68.5047 12.64 67.7061 14.2961 68.5105 15.7622C68.9303 16.5249 69.6769 16.5855 70.2776 16.5451C73.0441 15.9024 74.8316 13.3121 76.2916 10.9424C77.1384 9.14506 77.8909 7.35789 77.8909 5.36994C77.8909 5.12905 77.8786 4.80768 77.8579 4.5668C79.1799 3.86405 81.8897 5.10886 81.8897 5.10886C84.0077 5.8119 88.5167 9.27647 90.0383 9.93883C90.7803 9.0754 91.9998 7.77029 92.686 7.1173L91.6924 6.5047C90.1014 5.53062 88.4192 4.6069 86.7634 3.69341C83.0039 1.63521 79.944 2.35786 78.3862 2.92012C77.7736 3.1411 77.2143 3.33194 77.2143 3.33194C76.0581 2.06664 74.1626 2.18693 72.7662 2.5285C67.7426 3.9741 63.0791 7.49838 58.0791 13.6135C54.4031 18.4031 52.1226 22.54 50.9075 26.6265C49.9705 29.3772 49.6856 33.424 51.9723 35.8237C53.9165 37.8617 56.4942 37.4201 58.3147 36.6878C62.2589 34.7393 65.8036 30.5424 67.5695 25.7125C67.9957 24.2774 68.4688 22.2491 67.735 20.7025ZM76.8042 5.57131C76.282 11.5758 71.6279 15.1004 70.4758 15.3814C69.7779 15.5216 68.587 15.2104 69.6498 12.6907C71.2157 9.29667 73.8885 6.41543 76.7572 4.9391C76.827 5.18993 76.8249 5.35004 76.8042 5.57131Z" fill="#383E47"/>
<path d="M104.414 6.33437C101.911 7.76065 99.3151 8.68409 96.1732 8.36272C95.3028 9.34703 94.4549 10.3609 93.6738 11.4053C98.0831 12.5298 102.758 10.0296 105.365 7.65031C108.123 5.25054 109.538 2.22852 109.538 2.22852C109.538 2.22852 107.47 4.59755 104.414 6.33437Z" fill="#383E47"/>
<path d="M57.0978 11.334H53.8135L51.9609 14.3525H55.2447L57.0978 11.334Z" fill="#383E47"/>
<path d="M96.1614 33.8426C95.8079 34.0838 95.312 33.8982 95.4973 33.3468C95.9597 31.9407 97.7965 29.0762 97.7965 29.0762L102.913 19.9764H99.4083C99.2416 20.251 98.8852 20.8803 98.8852 20.8803C98.7232 20.6098 98.2384 20.0078 98.0388 19.8775C97.1827 19.3349 95.9267 19.5913 95.0601 20.0833C91.2924 22.2922 88.5428 26.6574 86.3744 30.0617C86.3744 30.0617 84.0925 33.8456 82.8254 34.1268C81.8362 34.2073 81.9386 32.8715 81.981 32.5598C82.3636 30.3104 83.2518 28.1723 84.1465 26.2339C85.9661 24.9694 88.0434 23.3125 89.9305 21.4952C94.0262 17.5688 97.4798 13.1208 97.9848 12.1268C97.9848 12.1268 97.4384 12.2371 96.793 12.257C93.6421 16.6652 87.1932 23.071 85.2384 24.0252C86.1044 21.9363 91.7002 11.9658 96.4617 7.19638L97.2107 6.47314C98.3698 5.33868 99.5697 4.17406 100.505 3.98323C100.604 3.97298 100.731 3.98323 100.841 4.21445C100.883 5.09808 100.555 5.75078 100.178 6.49363L99.6509 7.57834C99.6509 7.57834 100.398 7.43785 100.888 7.27658C101.457 6.2027 102.087 4.9974 101.855 3.56205C101.777 3.09989 101.444 2.74866 101.009 2.66846C99.5884 2.39714 98.0396 3.45112 96.7945 4.30489L96.7437 4.33475C90.3403 9.36521 84.9331 16.6149 80.206 26.5151C79.8633 26.7759 78.5396 27.0873 78.3149 26.9363C78.7819 25.9725 79.3694 24.6767 79.6637 23.2715C79.7147 22.8697 79.762 22.4587 79.762 22.0569C79.762 21.1931 79.5551 20.3798 78.783 19.8178C77.8776 19.3659 76.7591 19.5769 76.0046 19.9182C72.6254 21.3243 70.1 24.7985 68.2772 27.6593C67.2973 29.4777 66.3195 31.4241 66.0489 33.6536C65.8583 35.4006 66.2463 36.5251 67.2366 37.0874C68.2553 37.6093 69.5373 37.0669 70.0408 36.8061C73.4643 34.9985 75.8563 31.3738 77.7419 28.0602C77.8169 28.0506 78.8458 28.0201 79.6246 27.8197C79.6348 27.8197 79.6394 27.8197 79.6567 27.8299C79.612 27.9803 79.2095 29.1853 79.2095 29.1853C78.0145 32.6994 77.4623 35.0895 78.5907 36.5049C80.2037 38.5034 82.8741 36.4353 85.0463 33.7033C84.5796 36.9768 86.272 37.4895 87.5612 37.2384C89.0425 36.8369 90.6932 35.2499 91.4594 34.4368C91.213 35.391 91.2804 37.0979 92.6275 37.2683C93.551 37.4398 94.2422 36.9361 95.042 36.5041C97.9112 34.9376 101.346 29.7172 102.237 28.2081H101.068C99.8029 30.1293 98.19 32.6473 96.1614 33.8426ZM70.4088 33.4935C70.2267 33.2218 70.1666 32.9262 70.1602 32.6054C70.1251 30.6362 72.2372 27.111 73.729 25.1901C73.7323 25.1901 73.7323 25.1901 73.7323 25.1901C74.3572 26.5623 75.772 27.4441 76.6263 27.8153C75.5653 30.1852 71.9269 35.2604 70.4088 33.4935ZM77.225 26.7566C77.1237 26.8268 75.3397 26.2248 74.995 24.5676C74.7022 23.1413 75.6818 22.0267 76.6295 21.4648C77.0367 21.1434 77.6491 21.033 78.0983 21.1931C78.5154 21.475 78.6281 21.977 78.6281 22.5182C78.6281 22.8504 78.5849 23.1916 78.5457 23.5025C78.5457 23.5025 78.5385 23.5631 78.5373 23.5727C78.2399 24.687 77.7851 25.7817 77.225 26.7566ZM91.5358 32.8612L91.1975 33.1618C90.7162 33.5941 90.2209 34.0554 89.6228 33.8248C89.4576 33.7642 89.3412 33.5435 89.3131 33.3723C89.286 32.1374 89.8409 30.993 90.3785 29.8781L90.5163 29.5872C92.0636 26.9963 93.8619 23.9444 96.5032 21.8257C96.948 21.5037 97.4314 21.233 97.941 21.444C98.0583 21.554 98.1949 21.7449 98.1949 21.936C98.1949 21.996 98.1412 22.1567 98.1103 22.207C97.3733 23.4024 96.6704 24.6571 95.9874 25.8621C94.6526 28.2423 93.2676 30.7015 91.5358 32.8612Z" fill="#383E47"/>
</g>
</g>
<defs>
<clipPath id="clip0_37_82">
<rect width="110" height="40" fill="white"/>
</clipPath>
</defs>
</svg>
